<svg width="136" height="30" viewBox="0 0 136 30" fill="none" xmlns="http://www.w3.org/2000/svg">
<g clip-path="url(#clip0_720_18)">
<g clip-path="url(#clip1_720_18)">
<path fill-rule="evenodd" clip-rule="evenodd" d="M17.98 15.3086C22.1169 15.1873 25.4329 11.8224 25.4329 7.6892C25.4329 4.94855 23.9749 2.54572 21.7864 1.20234C25.3228 1.75366 28.0276 4.78993 28.0276 8.45289C28.0276 12.5066 24.7149 15.7928 20.6285 15.7928C19.6952 15.7928 18.8023 15.6214 17.98 15.3086Z" fill="#0A0A0A"/>
<path fill-rule="evenodd" clip-rule="evenodd" d="M12.0607 7.87851C12.9194 9.65676 14.5586 11.0433 16.6471 11.5155C19.1125 12.0729 21.5702 11.213 23.1537 9.47615C22.2993 12.2779 19.3912 13.9851 16.4703 13.3247C13.8527 12.7328 12.0749 10.4317 12.0607 7.87851Z" fill="#0A0A0A"/>
<path d="M6.3465 12.8645C6.3465 10.6329 6.78758 8.5035 7.58797 6.55743C7.38451 7.5954 7.27792 8.66769 7.27792 9.76468C7.27792 18.9911 14.8178 26.4707 24.1186 26.4707C24.6587 26.4707 25.1927 26.4454 25.7197 26.3961C24.3203 27.6771 22.0222 28.8059 20.3967 29.3421C12.4238 28.0232 6.3465 21.1479 6.3465 12.8645Z" fill="#0A0A0A"/>
<path d="M24.6895 23.9364C17.0571 23.9364 10.6106 18.8997 8.54334 11.994C11.3088 17.4671 17.0161 21.2241 23.6079 21.2241C25.9715 21.2241 28.2214 20.7411 30.2627 19.8691C30.0171 20.8206 29.0032 22.6209 28.3573 23.5391C27.1766 23.7992 25.9492 23.9364 24.6895 23.9364Z" fill="#0A0A0A"/>
<path d="M0.42749 14.7719C0.42749 7.775 5.19764 1.88334 11.6879 0.122559C7.26474 3.13314 4.3635 8.18423 4.3635 13.9075C4.3635 21.4994 9.46849 27.9085 16.459 29.9411C16.2193 29.9522 15.9783 29.9578 15.7359 29.9578C7.28129 29.9578 0.42749 23.1588 0.42749 14.7719Z" fill="#0A0A0A"/>
</g>
<g clip-path="url(#clip2_720_18)">
<path d="M133.702 3.4932V25.2362C133.702 25.7214 134.096 26.1147 134.582 26.1147H134.831C135.318 26.1147 135.712 25.7214 135.712 25.2362V3.4932C135.712 3.14255 135.624 2.89052 135.448 2.73711C135.273 2.56178 135.031 2.47412 134.723 2.47412C134.394 2.47412 134.141 2.56178 133.965 2.73711C133.79 2.89052 133.702 3.14255 133.702 3.4932Z" fill="#0A0A0A"/>
<path fill-rule="evenodd" clip-rule="evenodd" d="M122.429 26.1102C121.352 26.1102 120.385 25.902 119.529 25.4856C118.694 25.0692 118.024 24.4994 117.518 23.7762C117.035 23.053 116.793 22.2421 116.793 21.3435C116.793 20.1601 117.09 19.2287 117.683 18.5493C118.276 17.8699 119.276 17.3987 120.682 17.1357C122.088 16.8508 124.021 16.7084 126.482 16.7084H127.504V15.5249C127.504 14.0566 127.207 12.9937 126.614 12.3362C126.021 11.6568 125.076 11.3171 123.78 11.3171C122.945 11.3171 122.132 11.4267 121.341 11.6458C120.572 11.865 119.748 12.2157 118.869 12.6978C118.628 12.8293 118.408 12.8731 118.21 12.8293C118.035 12.7855 117.892 12.6978 117.782 12.5663C117.694 12.4348 117.628 12.2814 117.584 12.1061C117.562 11.9088 117.595 11.7226 117.683 11.5472C117.771 11.3719 117.925 11.2294 118.144 11.1199C119.067 10.6158 120.001 10.2432 120.946 10.0022C121.912 9.73918 122.846 9.60769 123.747 9.60769C125.043 9.60769 126.109 9.82685 126.943 10.2652C127.8 10.7035 128.426 11.3609 128.822 12.2376C129.239 13.1142 129.448 14.2429 129.448 15.6235V25.0254C129.448 25.3541 129.371 25.6061 129.217 25.7815C129.064 25.9568 128.833 26.0445 128.525 26.0445C128.218 26.0445 127.976 25.9568 127.8 25.7815C127.624 25.6061 127.537 25.3541 127.537 25.0254V23.0119C127.347 23.4498 127.105 23.847 126.812 24.2035C126.306 24.8172 125.68 25.2884 124.933 25.6171C124.186 25.9458 123.351 26.1102 122.429 26.1102ZM127.504 19.2725V18.1877H126.515C124.538 18.1877 122.989 18.2753 121.868 18.4507C120.77 18.6041 120.001 18.8999 119.562 19.3383C119.122 19.7766 118.902 20.3902 118.902 21.1792C118.902 22.1654 119.243 22.9653 119.924 23.5789C120.605 24.1926 121.528 24.4994 122.692 24.4994C123.637 24.4994 124.461 24.2802 125.164 23.8419C125.889 23.3817 126.46 22.7571 126.878 21.9681C127.295 21.1792 127.504 20.2806 127.504 19.2725Z" fill="#0A0A0A"/>
<path d="M100.31 25.7815C100.485 25.9568 100.738 26.0445 101.068 26.0445C101.727 26.0445 102.056 25.7048 102.056 25.0254V16.7412C102.056 15.0976 102.529 13.7936 103.473 12.8293C104.44 11.8431 105.714 11.35 107.296 11.35C108.68 11.35 109.691 11.7226 110.328 12.4677C110.965 13.1909 111.284 14.3524 111.284 15.9523V25.0254C111.284 25.3541 111.372 25.6061 111.547 25.7815C111.723 25.9568 111.976 26.0445 112.305 26.0445C112.613 26.0445 112.854 25.9568 113.03 25.7815C113.206 25.6061 113.294 25.3541 113.294 25.0254V15.7879C113.294 14.4072 113.085 13.2567 112.668 12.3362C112.25 11.4157 111.613 10.7363 110.756 10.298C109.922 9.8378 108.867 9.60769 107.593 9.60769C106.209 9.60769 104.978 9.94738 103.902 10.6268C103.096 11.1458 102.47 11.8503 102.023 12.7404V10.7254C102.023 10.3747 101.935 10.1117 101.76 9.93642C101.606 9.7611 101.375 9.67343 101.068 9.67343C100.738 9.67343 100.485 9.7611 100.31 9.93642C100.134 10.1117 100.046 10.3747 100.046 10.7254V25.0254C100.046 25.3541 100.134 25.6061 100.31 25.7815Z" fill="#0A0A0A"/>
<path d="M89.3588 26.0445C89.0293 26.0445 88.7766 25.9568 88.6009 25.7815C88.4251 25.6062 88.3372 25.3541 88.3372 25.0254V10.7254C88.3372 10.3747 88.4251 10.1118 88.6009 9.93643C88.7766 9.7611 89.0293 9.67344 89.3588 9.67344C89.6664 9.67344 89.8971 9.7611 90.0509 9.93643C90.2266 10.1118 90.3145 10.3747 90.3145 10.7254V12.789C90.7276 11.906 91.3208 11.1962 92.0941 10.6596C93.1267 9.95835 94.357 9.59674 95.785 9.57482C96.0487 9.55291 96.2684 9.60769 96.4441 9.73919C96.6199 9.87068 96.7077 10.0789 96.7077 10.3638C96.7297 10.6706 96.6638 10.9117 96.51 11.087C96.3562 11.2404 96.1036 11.339 95.7521 11.3829L95.2907 11.4157C93.7308 11.5691 92.5225 12.0842 91.6657 12.9608C90.8088 13.8374 90.3804 15.0209 90.3804 16.5111V25.0254C90.3804 25.3541 90.2925 25.6062 90.1168 25.7815C89.963 25.9568 89.7103 26.0445 89.3588 26.0445Z" fill="#0A0A0A"/>
<path fill-rule="evenodd" clip-rule="evenodd" d="M73.661 25.124C74.8474 25.7815 76.2644 26.1102 77.9122 26.1102C78.9008 26.1102 79.8895 25.9678 80.8781 25.6829C81.8668 25.376 82.7126 24.9377 83.4156 24.3679C83.6353 24.2145 83.7781 24.0501 83.844 23.8748C83.9319 23.6776 83.9429 23.5022 83.877 23.3488C83.8331 23.1735 83.7342 23.0311 83.5804 22.9215C83.4486 22.8119 83.2728 22.7571 83.0531 22.7571C82.8554 22.7571 82.6467 22.8338 82.427 22.9872C81.702 23.5132 80.955 23.8858 80.1861 24.1049C79.4391 24.3241 78.6592 24.4337 77.8463 24.4337C75.9788 24.4337 74.5288 23.8748 73.4962 22.7571C72.5291 21.6898 72.0149 20.1995 71.9536 18.2863H83.3168C83.6024 18.2863 83.8221 18.2096 83.9759 18.0562C84.1516 17.9028 84.2395 17.6727 84.2395 17.3658C84.2395 16.1605 84.0857 15.0866 83.7781 14.1442C83.4706 13.1799 83.0202 12.3691 82.427 11.7116C81.8558 11.0322 81.1527 10.5172 80.3179 10.1665C79.505 9.79397 78.5603 9.60769 77.4838 9.60769C76.0118 9.60769 74.7046 9.95834 73.5621 10.6596C72.4417 11.3609 71.5629 12.3362 70.9258 13.5854C70.2886 14.8127 69.9701 16.2591 69.9701 17.9247C69.9701 19.6122 70.2886 21.0696 70.9258 22.2969C71.5629 23.5242 72.4746 24.4665 73.661 25.124ZM71.9861 16.807C72.0642 15.9096 72.26 15.0987 72.5735 14.3744C72.9909 13.3881 73.6171 12.6211 74.4519 12.0732C75.2868 11.5034 76.3084 11.2185 77.5167 11.2185C78.5933 11.2185 79.494 11.4596 80.219 11.9417C80.966 12.4239 81.5262 13.1142 81.8997 14.0127C82.2306 14.7894 82.4149 15.7208 82.4527 16.807H71.9861Z" fill="#0A0A0A"/>
<path d="M65.3331 26.1102C64.1467 26.1102 63.1581 25.891 62.3671 25.4527C61.5762 25.0144 60.983 24.3898 60.5876 23.5789C60.1921 22.7461 59.9944 21.7271 59.9944 20.5217V11.5144H57.5557C57.2701 11.5144 57.0395 11.4486 56.8637 11.3171C56.6879 11.1637 56.6001 10.9555 56.6001 10.6925C56.6001 10.4514 56.6879 10.2652 56.8637 10.1337C57.0395 9.98025 57.2701 9.90355 57.5557 9.90355H59.9944V5.79436C59.9944 5.4437 60.0823 5.19167 60.258 5.03826C60.4338 4.86294 60.6865 4.77527 61.016 4.77527C61.3236 4.77527 61.5653 4.86294 61.741 5.03826C61.9168 5.19167 62.0046 5.4437 62.0046 5.79436V9.90355H66.4535C66.7611 9.90355 66.9918 9.98025 67.1456 10.1337C67.2994 10.2652 67.3763 10.4514 67.3763 10.6925C67.3763 10.9555 67.2994 11.1637 67.1456 11.3171C66.9918 11.4486 66.7611 11.5144 66.4535 11.5144H62.0046V20.2587C62.0046 21.5956 62.2793 22.6147 62.8285 23.316C63.3778 24.0173 64.2895 24.3679 65.5638 24.3679C66.0032 24.3679 66.3657 24.3241 66.6513 24.2364C66.9589 24.1268 67.2115 24.0721 67.4092 24.0721C67.563 24.0721 67.6948 24.1378 67.8047 24.2693C67.9365 24.4008 68.0024 24.609 68.0024 24.8939C68.0024 25.0692 67.9585 25.2445 67.8706 25.4199C67.8047 25.5952 67.6729 25.7048 67.4751 25.7486C67.2335 25.8363 66.9039 25.913 66.4865 25.9787C66.0691 26.0664 65.6846 26.1102 65.3331 26.1102Z" fill="#0A0A0A"/>
<path fill-rule="evenodd" clip-rule="evenodd" d="M43.8474 25.124C45.0338 25.7815 46.4509 26.1102 48.0986 26.1102C49.0872 26.1102 50.0759 25.9678 51.0645 25.6829C52.0532 25.376 52.899 24.9377 53.6021 24.3679C53.8218 24.2145 53.9646 24.0501 54.0305 23.8748C54.1183 23.6776 54.1293 23.5022 54.0634 23.3488C54.0195 23.1735 53.9206 23.0311 53.7668 22.9215C53.635 22.8119 53.4592 22.7571 53.2396 22.7571C53.0418 22.7571 52.8331 22.8338 52.6134 22.9872C51.8884 23.5132 51.1414 23.8858 50.3725 24.1049C49.6255 24.3241 48.8456 24.4337 48.0327 24.4337C46.1653 24.4337 44.7152 23.8748 43.6827 22.7571C42.7156 21.6898 42.2013 20.1995 42.14 18.2863H53.5032C53.7888 18.2863 54.0085 18.2096 54.1623 18.0562C54.338 17.9028 54.4259 17.6727 54.4259 17.3658C54.4259 16.1605 54.2721 15.0866 53.9646 14.1442C53.657 13.1799 53.2066 12.3691 52.6134 11.7116C52.0422 11.0322 51.3392 10.5172 50.5043 10.1665C49.6914 9.79397 48.7467 9.60769 47.6702 9.60769C46.1982 9.60769 44.891 9.95834 43.7486 10.6596C42.6281 11.3609 41.7493 12.3362 41.1122 13.5854C40.4751 14.8127 40.1565 16.2591 40.1565 17.9247C40.1565 19.6122 40.4751 21.0696 41.1122 22.2969C41.7493 23.5242 42.6611 24.4665 43.8474 25.124ZM42.1726 16.807C42.2506 15.9096 42.4464 15.0987 42.7599 14.3744C43.1774 13.3881 43.8035 12.6211 44.6383 12.0732C45.4732 11.5034 46.4948 11.2185 47.7031 11.2185C48.7797 11.2185 49.6804 11.4596 50.4054 11.9417C51.1524 12.4239 51.7126 13.1142 52.0861 14.0127C52.417 14.7894 52.6013 15.7208 52.6391 16.807H42.1726Z" fill="#0A0A0A"/>
</g>
</g>
<defs>
<clipPath id="clip0_720_18">
<rect width="135.185" height="30" fill="white" transform="translate(0.304688)"/>
</clipPath>
<clipPath id="clip1_720_18">
<rect width="30" height="30" fill="white" transform="translate(0.304688)"/>
</clipPath>
<clipPath id="clip2_720_18">
<rect width="95.5555" height="23.8889" fill="white" transform="translate(40.1565 2.5)"/>
</clipPath>
</defs>
</svg>
